<svg width="100" height="100" viewBox="0 0 100 100" fill="none" xmlns="http://www.w3.org/2000/svg">
  <path d="M1.5 0C1.5 0.828427 0.828427 1.5 0 1.5C-0.828427 1.5 -1.5 0.828427 -1.5 0C-1.5 -0.828427 -0.828427 -1.5 0 -1.5C0.828427 -1.5 1.5 -0.828427 1.5 0Z" transform="translate(50 50)" fill="#E2E8F0"/>
  <path d="M1.5 0C1.5 0.828427 0.828427 1.5 0 1.5C-0.828427 1.5 -1.5 0.828427 -1.5 0C-1.5 -0.828427 -0.828427 -1.5 0 -1.5C0.828427 -1.5 1.5 -0.828427 1.5 0Z" transform="translate(50 0)" fill="#E2E8F0"/>
  <path d="M1.5 0C1.5 0.828427 0.828427 1.5 0 1.5C-0.828427 1.5 -1.5 0.828427 -1.5 0C-1.5 -0.828427 -0.828427 -1.5 0 -1.5C0.828427 -1.5 1.5 -0.828427 1.5 0Z" transform="translate(0 50)" fill="#E2E8F0"/>
  <path d="M1.5 0C1.5 0.828427 0.828427 1.5 0 1.5C-0.828427 1.5 -1.5 0.828427 -1.5 0C-1.5 -0.828427 -0.828427 -1.5 0 -1.5C0.828427 -1.5 1.5 -0.828427 1.5 0Z" transform="translate(100 50)" fill="#E2E8F0"/>
  <path d="M1.5 0C1.5 0.828427 0.828427 1.5 0 1.5C-0.828427 1.5 -1.5 0.828427 -1.5 0C-1.5 -0.828427 -0.828427 -1.5 0 -1.5C0.828427 -1.5 1.5 -0.828427 1.5 0Z" transform="translate(50 100)" fill="#E2E8F0"/>
</svg> 